# xmcd
#
# Track frame offsets:
#	150
#	29097
#	69540
#	96237
#	117075
#	133897
#	158090
#	177775
#	197305
#	214342
#	232302
#	249075
#
# Disc length: 3857 seconds
#
# Revision: 1
# Processed by: cddbd v1.5.1PL0 Copyright (c) Steve Scherf et al.
# Submitted via: CDex 1.50Beta5
#
DISCID=a90f0f0c
DTITLE=44MAGNUM - LIVE and RARE Disc 8
DYEAR=2000
DGENRE=Rock
TTITLE0=LAST TRAIN
TTITLE1=LOCK OUT-LOVING YOU-NIGHT MARE- IT’S TOO BAD
TTITLE2=G-SOLO
TTITLE3=YOU ARE EVERYTHING TO ME
TTITLE4=HIGH SCHOOL UPROAR
TTITLE5=LOVE DESIRE
TTITLE6=SHE’S SO CRAZY,MAKE ME CRAZY
TTITLE7=LOCK OUT
TTITLE8=TOO LATE TO HIDE
TTITLE9=I JUST CAN’T TAKE ANY MORE
TTITLE10=HOLY ANGEL
TTITLE11=BACK STREET DELINQUENT
EXTD=
EXTT0=
EXTT1=
EXTT2=
EXTT3=
EXTT4=
EXTT5=
EXTT6=
EXTT7=
EXTT8=
EXTT9=
EXTT10=
EXTT11=
PLAYORDER=
